<mxfile host="app.diagrams.net" modified="2022-05-24T15:42:12.212Z" agent="5.0 (Windows NT 10.0; Win64; x64) AppleWebKit/537.36 (KHTML, like Gecko) Chrome/101.0.4951.64 Safari/537.36 Edg/101.0.1210.53" etag="37yIcBhqxd7xGLlVRuYJ" version="18.1.2" type="github" pages="4">
  <diagram id="EMZMHPRDQE-Ls_qf3bnq" name="第 1 页">
    <mxGraphModel dx="619" dy="327" grid="0" gridSize="10" guides="1" tooltips="1" connect="1" arrows="1" fold="1" page="1" pageScale="1" pageWidth="850" pageHeight="1100" math="1" shadow="0">
      <root>
        <mxCell id="0" />
        <mxCell id="1" parent="0" />
        <mxCell id="WOzQezb-YbpJzm0etGFt-1" value="" style="rounded=1;whiteSpace=wrap;html=1;" vertex="1" parent="1">
          <mxGeometry x="134" y="204" width="155" height="73" as="geometry" />
        </mxCell>
        <mxCell id="CDPST046NpbkrJbSnLtf-8" value="&lt;font face=&quot;Times New Roman&quot;&gt;tanh&lt;/font&gt;" style="rounded=0;whiteSpace=wrap;html=1;" vertex="1" parent="1">
          <mxGeometry x="670" y="419" width="47" height="21" as="geometry" />
        </mxCell>
        <mxCell id="CDPST046NpbkrJbSnLtf-21" style="edgeStyle=orthogonalEdgeStyle;rounded=0;orthogonalLoop=1;jettySize=auto;html=1;exitX=0.5;exitY=0;exitDx=0;exitDy=0;entryX=0.134;entryY=1.01;entryDx=0;entryDy=0;entryPerimeter=0;fontFamily=Times New Roman;" edge="1" parent="1" source="CDPST046NpbkrJbSnLtf-11" target="WOzQezb-YbpJzm0etGFt-1">
          <mxGeometry relative="1" as="geometry" />
        </mxCell>
        <mxCell id="CDPST046NpbkrJbSnLtf-11" value="$$X_{t-1}$$" style="ellipse;whiteSpace=wrap;html=1;aspect=fixed;fontFamily=Times New Roman;" vertex="1" parent="1">
          <mxGeometry x="140" y="299" width="30" height="30" as="geometry" />
        </mxCell>
        <mxCell id="CDPST046NpbkrJbSnLtf-22" style="edgeStyle=orthogonalEdgeStyle;rounded=0;orthogonalLoop=1;jettySize=auto;html=1;exitX=0.5;exitY=0;exitDx=0;exitDy=0;entryX=0.168;entryY=0.996;entryDx=0;entryDy=0;entryPerimeter=0;fontFamily=Times New Roman;" edge="1" parent="1" source="CDPST046NpbkrJbSnLtf-15" target="CDPST046NpbkrJbSnLtf-18">
          <mxGeometry relative="1" as="geometry" />
        </mxCell>
        <mxCell id="CDPST046NpbkrJbSnLtf-15" value="$$X$$" style="ellipse;whiteSpace=wrap;html=1;aspect=fixed;fontFamily=Times New Roman;" vertex="1" parent="1">
          <mxGeometry x="339" y="299" width="30" height="30" as="geometry" />
        </mxCell>
        <mxCell id="CDPST046NpbkrJbSnLtf-23" style="edgeStyle=orthogonalEdgeStyle;rounded=0;orthogonalLoop=1;jettySize=auto;html=1;exitX=0.5;exitY=0;exitDx=0;exitDy=0;entryX=0.149;entryY=0.989;entryDx=0;entryDy=0;entryPerimeter=0;fontFamily=Times New Roman;" edge="1" parent="1" source="CDPST046NpbkrJbSnLtf-16" target="CDPST046NpbkrJbSnLtf-17">
          <mxGeometry relative="1" as="geometry" />
        </mxCell>
        <mxCell id="CDPST046NpbkrJbSnLtf-16" value="$$X_{t+1}$$" style="ellipse;whiteSpace=wrap;html=1;aspect=fixed;fontFamily=Times New Roman;" vertex="1" parent="1">
          <mxGeometry x="530" y="299" width="30" height="30" as="geometry" />
        </mxCell>
        <mxCell id="CDPST046NpbkrJbSnLtf-17" value="" style="rounded=1;whiteSpace=wrap;html=1;" vertex="1" parent="1">
          <mxGeometry x="522" y="204" width="155" height="73" as="geometry" />
        </mxCell>
        <mxCell id="CDPST046NpbkrJbSnLtf-18" value="" style="rounded=1;whiteSpace=wrap;html=1;" vertex="1" parent="1">
          <mxGeometry x="328" y="204" width="155" height="73" as="geometry" />
        </mxCell>
        <mxCell id="CDPST046NpbkrJbSnLtf-24" value="$$X_{t-1}$$" style="ellipse;whiteSpace=wrap;html=1;aspect=fixed;fontFamily=Times New Roman;" vertex="1" parent="1">
          <mxGeometry x="213" y="132" width="30" height="30" as="geometry" />
        </mxCell>
        <mxCell id="CDPST046NpbkrJbSnLtf-25" value="$$X_{t-1}$$" style="ellipse;whiteSpace=wrap;html=1;aspect=fixed;fontFamily=Times New Roman;" vertex="1" parent="1">
          <mxGeometry x="349" y="134" width="30" height="30" as="geometry" />
        </mxCell>
        <mxCell id="CDPST046NpbkrJbSnLtf-26" value="$$X_{t-1}$$" style="ellipse;whiteSpace=wrap;html=1;aspect=fixed;fontFamily=Times New Roman;" vertex="1" parent="1">
          <mxGeometry x="530" y="137" width="30" height="30" as="geometry" />
        </mxCell>
      </root>
    </mxGraphModel>
  </diagram>
  <diagram id="I0seHJ-mc3InrynozngA" name="第 2 页">
    <mxGraphModel dx="898" dy="474" grid="0" gridSize="10" guides="1" tooltips="1" connect="1" arrows="1" fold="1" page="1" pageScale="1" pageWidth="850" pageHeight="1100" math="0" shadow="0">
      <root>
        <mxCell id="0" />
        <mxCell id="1" parent="0" />
      </root>
    </mxGraphModel>
  </diagram>
  <diagram id="lQTyZTXMPaL4OQDkoCTH" name="第 3 页">
    <mxGraphModel dx="898" dy="474" grid="0" gridSize="10" guides="1" tooltips="1" connect="1" arrows="1" fold="1" page="1" pageScale="1" pageWidth="850" pageHeight="1100" math="0" shadow="0">
      <root>
        <mxCell id="0" />
        <mxCell id="1" parent="0" />
      </root>
    </mxGraphModel>
  </diagram>
  <diagram id="GjL9CqPUbVIRuUMMWOZT" name="第 4 页">
    <mxGraphModel dx="898" dy="474" grid="0" gridSize="10" guides="1" tooltips="1" connect="1" arrows="1" fold="1" page="1" pageScale="1" pageWidth="850" pageHeight="1100" math="0" shadow="0">
      <root>
        <mxCell id="0" />
        <mxCell id="1" parent="0" />
      </root>
    </mxGraphModel>
  </diagram>
</mxfile>
